<mxfile host="app.diagrams.net" modified="2024-05-10T01:15:47.505Z" agent="Mozilla/5.0 (Windows NT 10.0; Win64; x64) AppleWebKit/537.36 (KHTML, like Gecko) Chrome/124.0.0.0 Safari/537.36" etag="4BqtdoXveqvKiqUJDLC9" version="24.3.0" type="github">
  <diagram name="第 1 页" id="HbUvfql849o553JddJWj">
    <mxGraphModel dx="2275" dy="705" grid="1" gridSize="10" guides="1" tooltips="1" connect="1" arrows="1" fold="1" page="1" pageScale="1" pageWidth="827" pageHeight="1169" math="0" shadow="0">
      <root>
        <mxCell id="0" />
        <mxCell id="1" parent="0" />
        <mxCell id="ZRGWAe6ejBWaFAPOV5AN-6" style="edgeStyle=orthogonalEdgeStyle;rounded=0;orthogonalLoop=1;jettySize=auto;html=1;" edge="1" parent="1" source="ZRGWAe6ejBWaFAPOV5AN-2" target="ZRGWAe6ejBWaFAPOV5AN-3">
          <mxGeometry relative="1" as="geometry" />
        </mxCell>
        <mxCell id="ZRGWAe6ejBWaFAPOV5AN-7" style="edgeStyle=orthogonalEdgeStyle;rounded=0;orthogonalLoop=1;jettySize=auto;html=1;" edge="1" parent="1" source="ZRGWAe6ejBWaFAPOV5AN-2" target="ZRGWAe6ejBWaFAPOV5AN-4">
          <mxGeometry relative="1" as="geometry" />
        </mxCell>
        <mxCell id="ZRGWAe6ejBWaFAPOV5AN-8" style="edgeStyle=orthogonalEdgeStyle;rounded=0;orthogonalLoop=1;jettySize=auto;html=1;" edge="1" parent="1" source="ZRGWAe6ejBWaFAPOV5AN-2" target="ZRGWAe6ejBWaFAPOV5AN-5">
          <mxGeometry relative="1" as="geometry" />
        </mxCell>
        <mxCell id="ZRGWAe6ejBWaFAPOV5AN-2" value="活動類型" style="rhombus;whiteSpace=wrap;html=1;" vertex="1" parent="1">
          <mxGeometry x="321" y="30" width="186" height="130" as="geometry" />
        </mxCell>
        <mxCell id="ZRGWAe6ejBWaFAPOV5AN-54" style="edgeStyle=orthogonalEdgeStyle;rounded=0;orthogonalLoop=1;jettySize=auto;html=1;" edge="1" parent="1" source="ZRGWAe6ejBWaFAPOV5AN-3" target="ZRGWAe6ejBWaFAPOV5AN-9">
          <mxGeometry relative="1" as="geometry" />
        </mxCell>
        <mxCell id="ZRGWAe6ejBWaFAPOV5AN-3" value="訂單滿額贈卷" style="rounded=0;whiteSpace=wrap;html=1;" vertex="1" parent="1">
          <mxGeometry x="-295" y="250" width="120" height="60" as="geometry" />
        </mxCell>
        <mxCell id="ZRGWAe6ejBWaFAPOV5AN-50" style="edgeStyle=orthogonalEdgeStyle;rounded=0;orthogonalLoop=1;jettySize=auto;html=1;" edge="1" parent="1" source="ZRGWAe6ejBWaFAPOV5AN-4" target="ZRGWAe6ejBWaFAPOV5AN-49">
          <mxGeometry relative="1" as="geometry" />
        </mxCell>
        <mxCell id="ZRGWAe6ejBWaFAPOV5AN-4" value="指定商品滿額贈卷" style="rounded=0;whiteSpace=wrap;html=1;" vertex="1" parent="1">
          <mxGeometry x="354" y="250" width="120" height="60" as="geometry" />
        </mxCell>
        <mxCell id="ZRGWAe6ejBWaFAPOV5AN-5" value="指定會員贈卷" style="rounded=0;whiteSpace=wrap;html=1;" vertex="1" parent="1">
          <mxGeometry x="650" y="250" width="120" height="60" as="geometry" />
        </mxCell>
        <mxCell id="ZRGWAe6ejBWaFAPOV5AN-9" value="&lt;div style=&quot;box-sizing: border-box; width: 100%; background: rgb(228, 228, 228); padding: 2px; font-size: 11px;&quot;&gt;CouponEventDataViewModel&lt;/div&gt;&lt;table align=&quot;left&quot; style=&quot;width: 100%; font-size: 11px;&quot; cellpadding=&quot;2&quot; cellspacing=&quot;0&quot;&gt;&lt;tbody&gt;&lt;tr&gt;&lt;td&gt;&lt;font style=&quot;font-size: 11px;&quot;&gt;long&lt;/font&gt;&lt;/td&gt;&lt;td&gt;&lt;font style=&quot;font-size: 11px;&quot;&gt;ID&lt;/font&gt;&lt;/td&gt;&lt;/tr&gt;&lt;tr&gt;&lt;td&gt;&lt;font style=&quot;font-size: 11px;&quot;&gt;string&lt;/font&gt;&lt;/td&gt;&lt;td&gt;&lt;font style=&quot;font-size: 11px;&quot;&gt;Name&lt;/font&gt;&lt;/td&gt;&lt;/tr&gt;&lt;tr&gt;&lt;td&gt;&lt;font style=&quot;font-size: 11px;&quot;&gt;string&lt;br&gt;&lt;/font&gt;&lt;/td&gt;&lt;td&gt;&lt;font style=&quot;font-size: 11px;&quot;&gt;Creator&lt;br&gt;&lt;/font&gt;&lt;/td&gt;&lt;/tr&gt;&lt;tr&gt;&lt;td style=&quot;&quot;&gt;&lt;font style=&quot;font-size: 11px;&quot;&gt;string&lt;br&gt;&lt;/font&gt;&lt;/td&gt;&lt;td&gt;&lt;font style=&quot;font-size: 11px;&quot;&gt;UpdateTime&lt;br&gt;&lt;/font&gt;&lt;/td&gt;&lt;/tr&gt;&lt;tr&gt;&lt;td&gt;&lt;font style=&quot;font-size: 11px;&quot;&gt;Enum&lt;br&gt;&lt;/font&gt;&lt;/td&gt;&lt;td&gt;&lt;font style=&quot;font-size: 11px;&quot;&gt;EventType&lt;br&gt;&lt;/font&gt;&lt;/td&gt;&lt;/tr&gt;&lt;tr&gt;&lt;td&gt;&lt;font style=&quot;&quot;&gt;string&lt;br&gt;&lt;/font&gt;&lt;/td&gt;&lt;td&gt;&lt;font style=&quot;&quot;&gt;EventTypeDescription&lt;br&gt;&lt;/font&gt;&lt;/td&gt;&lt;/tr&gt;&lt;tr&gt;&lt;td&gt;&lt;font style=&quot;&quot;&gt;bool&lt;br&gt;&lt;/font&gt;&lt;/td&gt;&lt;td&gt;&lt;font style=&quot;&quot;&gt;Editable&lt;br&gt;&lt;/font&gt;&lt;/td&gt;&lt;/tr&gt;&lt;/tbody&gt;&lt;/table&gt;" style="verticalAlign=top;align=left;overflow=fill;html=1;whiteSpace=wrap;" vertex="1" parent="1">
          <mxGeometry x="-340" y="430" width="210" height="140" as="geometry" />
        </mxCell>
        <mxCell id="ZRGWAe6ejBWaFAPOV5AN-30" style="edgeStyle=orthogonalEdgeStyle;rounded=0;orthogonalLoop=1;jettySize=auto;html=1;exitX=0.5;exitY=1;exitDx=0;exitDy=0;" edge="1" parent="1" source="ZRGWAe6ejBWaFAPOV5AN-17" target="ZRGWAe6ejBWaFAPOV5AN-28">
          <mxGeometry relative="1" as="geometry">
            <Array as="points">
              <mxPoint x="-235" y="1170" />
              <mxPoint x="-275" y="1170" />
            </Array>
          </mxGeometry>
        </mxCell>
        <mxCell id="ZRGWAe6ejBWaFAPOV5AN-43" style="edgeStyle=orthogonalEdgeStyle;rounded=0;orthogonalLoop=1;jettySize=auto;html=1;entryX=0;entryY=0.5;entryDx=0;entryDy=0;exitX=0.5;exitY=1;exitDx=0;exitDy=0;" edge="1" parent="1" source="ZRGWAe6ejBWaFAPOV5AN-17" target="ZRGWAe6ejBWaFAPOV5AN-46">
          <mxGeometry relative="1" as="geometry">
            <mxPoint y="1090.0000000000002" as="targetPoint" />
            <Array as="points">
              <mxPoint x="-235" y="1170" />
              <mxPoint x="-20" y="1170" />
            </Array>
          </mxGeometry>
        </mxCell>
        <mxCell id="ZRGWAe6ejBWaFAPOV5AN-44" style="edgeStyle=orthogonalEdgeStyle;rounded=0;orthogonalLoop=1;jettySize=auto;html=1;entryX=0;entryY=0.5;entryDx=0;entryDy=0;exitX=0.5;exitY=1;exitDx=0;exitDy=0;" edge="1" parent="1" source="ZRGWAe6ejBWaFAPOV5AN-17" target="ZRGWAe6ejBWaFAPOV5AN-47">
          <mxGeometry relative="1" as="geometry">
            <mxPoint x="245" y="1090" as="targetPoint" />
            <Array as="points">
              <mxPoint x="-235" y="1170" />
              <mxPoint x="235" y="1170" />
            </Array>
          </mxGeometry>
        </mxCell>
        <mxCell id="ZRGWAe6ejBWaFAPOV5AN-17" value="&lt;div style=&quot;box-sizing: border-box; width: 100%; background: rgb(228, 228, 228); padding: 2px;&quot;&gt;&lt;span style=&quot;font-size: 11px;&quot;&gt;EventParameter&lt;/span&gt;&lt;br&gt;&lt;/div&gt;&lt;table style=&quot;width: 100%; font-size: 11px;&quot; cellpadding=&quot;2&quot; cellspacing=&quot;0&quot;&gt;&lt;tbody&gt;&lt;tr&gt;&lt;td&gt;string&lt;br&gt;&lt;/td&gt;&lt;td&gt;EventStatus&lt;/td&gt;&lt;/tr&gt;&lt;tr&gt;&lt;td&gt;&lt;font style=&quot;font-size: 11px;&quot;&gt;string&lt;/font&gt;&lt;/td&gt;&lt;td&gt;&lt;font style=&quot;font-size: 11px;&quot;&gt;EventStartDate&lt;/font&gt;&lt;/td&gt;&lt;/tr&gt;&lt;tr&gt;&lt;td&gt;&lt;font style=&quot;font-size: 11px;&quot;&gt;string&lt;br&gt;&lt;/font&gt;&lt;/td&gt;&lt;td&gt;&lt;font style=&quot;font-size: 11px;&quot;&gt;EventEndDate&lt;br&gt;&lt;/font&gt;&lt;/td&gt;&lt;/tr&gt;&lt;tr&gt;&lt;td style=&quot;&quot;&gt;&lt;font style=&quot;font-size: 11px;&quot;&gt;string&lt;br&gt;&lt;/font&gt;&lt;/td&gt;&lt;td&gt;&lt;font style=&quot;font-size: 11px;&quot;&gt;OrderStartDate&lt;br&gt;&lt;/font&gt;&lt;/td&gt;&lt;/tr&gt;&lt;tr&gt;&lt;td&gt;&lt;font style=&quot;font-size: 11px;&quot;&gt;string&lt;br&gt;&lt;/font&gt;&lt;/td&gt;&lt;td&gt;&lt;font style=&quot;font-size: 11px;&quot;&gt;OrderEndDate&lt;br&gt;&lt;/font&gt;&lt;/td&gt;&lt;/tr&gt;&lt;tr&gt;&lt;td&gt;&lt;font style=&quot;&quot;&gt;Enum&lt;br&gt;&lt;/font&gt;&lt;/td&gt;&lt;td&gt;&lt;font style=&quot;&quot;&gt;OrderProductType&lt;br&gt;&lt;/font&gt;&lt;/td&gt;&lt;/tr&gt;&lt;tr&gt;&lt;td&gt;string&lt;br&gt;&lt;/td&gt;&lt;td&gt;OrderProductTypeDescription&lt;br&gt;&lt;/td&gt;&lt;/tr&gt;&lt;tr&gt;&lt;td&gt;bool&lt;br&gt;&lt;/td&gt;&lt;td&gt;IsAppreciation&lt;br&gt;&lt;/td&gt;&lt;/tr&gt;&lt;tr&gt;&lt;td&gt;decimal&lt;br&gt;&lt;/td&gt;&lt;td&gt;OrderThreshold&lt;br&gt;&lt;/td&gt;&lt;/tr&gt;&lt;tr&gt;&lt;td&gt;Enum&lt;br&gt;&lt;/td&gt;&lt;td&gt;DistributeType&lt;br&gt;&lt;/td&gt;&lt;/tr&gt;&lt;tr&gt;&lt;td&gt;string&lt;br&gt;&lt;/td&gt;&lt;td&gt;DistributeTypeDescription&lt;br&gt;&lt;/td&gt;&lt;/tr&gt;&lt;tr&gt;&lt;td&gt;&lt;font color=&quot;#663300&quot;&gt;decimal?&lt;br&gt;&lt;/font&gt;&lt;/td&gt;&lt;td&gt;&lt;font color=&quot;#663300&quot;&gt;RewardPercent&lt;/font&gt;&lt;br&gt;&lt;/td&gt;&lt;/tr&gt;&lt;/tbody&gt;&lt;/table&gt;" style="verticalAlign=top;align=left;overflow=fill;html=1;whiteSpace=wrap;" vertex="1" parent="1">
          <mxGeometry x="-340" y="570" width="210" height="230" as="geometry" />
        </mxCell>
        <mxCell id="ZRGWAe6ejBWaFAPOV5AN-26" value="FixedCouponPerOrderThreshold" style="text;html=1;align=center;verticalAlign=middle;whiteSpace=wrap;rounded=0;fontStyle=3;labelBackgroundColor=none;labelBorderColor=default;" vertex="1" parent="1">
          <mxGeometry x="-290" y="1270" width="60" height="30" as="geometry" />
        </mxCell>
        <mxCell id="ZRGWAe6ejBWaFAPOV5AN-28" value="&lt;div style=&quot;box-sizing: border-box; width: 100%; background: rgb(228, 228, 228); padding: 2px;&quot;&gt;&lt;span style=&quot;font-size: 11px;&quot;&gt;CouponParameter&lt;/span&gt;&lt;br&gt;&lt;/div&gt;&lt;table style=&quot;width: 100%; font-size: 11px;&quot; cellpadding=&quot;2&quot; cellspacing=&quot;0&quot;&gt;&lt;tbody&gt;&lt;tr&gt;&lt;td&gt;int&lt;br&gt;&lt;/td&gt;&lt;td&gt;Count&lt;/td&gt;&lt;/tr&gt;&lt;tr&gt;&lt;td&gt;&lt;font style=&quot;font-size: 11px;&quot;&gt;decimal&lt;/font&gt;&lt;/td&gt;&lt;td&gt;&lt;font style=&quot;font-size: 11px;&quot;&gt;Value&lt;/font&gt;&lt;/td&gt;&lt;/tr&gt;&lt;tr&gt;&lt;td&gt;&lt;font style=&quot;font-size: 11px;&quot;&gt;decimal&lt;br&gt;&lt;/font&gt;&lt;/td&gt;&lt;td&gt;&lt;font style=&quot;font-size: 11px;&quot;&gt;Threshold&lt;br&gt;&lt;/font&gt;&lt;/td&gt;&lt;/tr&gt;&lt;tr&gt;&lt;td style=&quot;&quot;&gt;&lt;font style=&quot;font-size: 11px;&quot;&gt;int&lt;br&gt;&lt;/font&gt;&lt;/td&gt;&lt;td&gt;&lt;font style=&quot;font-size: 11px;&quot;&gt;ExpiryDate&lt;br&gt;&lt;/font&gt;&lt;/td&gt;&lt;/tr&gt;&lt;tr&gt;&lt;td&gt;&lt;font style=&quot;font-size: 11px;&quot;&gt;string&lt;br&gt;&lt;/font&gt;&lt;/td&gt;&lt;td&gt;&lt;font style=&quot;font-size: 11px;&quot;&gt;TrackCode&lt;br&gt;&lt;/font&gt;&lt;/td&gt;&lt;/tr&gt;&lt;tr&gt;&lt;td&gt;&lt;font style=&quot;&quot;&gt;string&lt;br&gt;&lt;/font&gt;&lt;/td&gt;&lt;td&gt;&lt;font style=&quot;&quot;&gt;Note&lt;br&gt;&lt;/font&gt;&lt;/td&gt;&lt;/tr&gt;&lt;tr&gt;&lt;td&gt;&lt;font style=&quot;&quot;&gt;Enum&lt;br&gt;&lt;/font&gt;&lt;/td&gt;&lt;td&gt;&lt;font style=&quot;&quot;&gt;MarketBehavior&lt;br&gt;&lt;/font&gt;&lt;/td&gt;&lt;/tr&gt;&lt;tr&gt;&lt;td&gt;string&lt;/td&gt;&lt;td&gt;MarketBehaviorDescription&lt;br&gt;&lt;/td&gt;&lt;/tr&gt;&lt;tr&gt;&lt;td&gt;string&lt;br&gt;&lt;/td&gt;&lt;td&gt;FileName&lt;br&gt;&lt;/td&gt;&lt;/tr&gt;&lt;tr&gt;&lt;td&gt;List&amp;lt;long&amp;gt;&lt;br&gt;&lt;/td&gt;&lt;td&gt;MarketIDs&lt;br&gt;&lt;/td&gt;&lt;/tr&gt;&lt;tr&gt;&lt;td&gt;&lt;/td&gt;&lt;td&gt;&lt;br&gt;&lt;/td&gt;&lt;/tr&gt;&lt;/tbody&gt;&lt;/table&gt;" style="verticalAlign=top;align=left;overflow=fill;html=1;whiteSpace=wrap;" vertex="1" parent="1">
          <mxGeometry x="-380" y="1440" width="210" height="190" as="geometry" />
        </mxCell>
        <mxCell id="ZRGWAe6ejBWaFAPOV5AN-31" value="PercentageDiscountPerOrderThreshold" style="text;html=1;align=center;verticalAlign=middle;whiteSpace=wrap;rounded=0;labelBorderColor=default;fontStyle=3" vertex="1" parent="1">
          <mxGeometry x="-50" y="1270" width="60" height="30" as="geometry" />
        </mxCell>
        <mxCell id="ZRGWAe6ejBWaFAPOV5AN-32" value="FixedCouponPerEachThreshold" style="text;html=1;align=center;verticalAlign=middle;whiteSpace=wrap;rounded=0;labelBorderColor=default;fontStyle=3" vertex="1" parent="1">
          <mxGeometry x="205" y="1270" width="60" height="30" as="geometry" />
        </mxCell>
        <mxCell id="ZRGWAe6ejBWaFAPOV5AN-34" value="CouponPerEachThreshold" style="text;html=1;align=center;verticalAlign=middle;whiteSpace=wrap;rounded=0;labelBorderColor=default;fontStyle=3" vertex="1" parent="1">
          <mxGeometry x="455" y="1270" width="60" height="30" as="geometry" />
        </mxCell>
        <mxCell id="ZRGWAe6ejBWaFAPOV5AN-36" value="TYPE 1" style="text;html=1;align=center;verticalAlign=middle;whiteSpace=wrap;rounded=0;fontStyle=3;labelBackgroundColor=none;labelBorderColor=default;" vertex="1" parent="1">
          <mxGeometry x="-360" y="1250" width="60" height="30" as="geometry" />
        </mxCell>
        <mxCell id="ZRGWAe6ejBWaFAPOV5AN-39" value="TYPE 2" style="text;html=1;align=center;verticalAlign=middle;whiteSpace=wrap;rounded=0;fontStyle=3;labelBackgroundColor=none;labelBorderColor=default;" vertex="1" parent="1">
          <mxGeometry x="-140" y="1250" width="60" height="30" as="geometry" />
        </mxCell>
        <mxCell id="ZRGWAe6ejBWaFAPOV5AN-40" value="TYPE 3" style="text;html=1;align=center;verticalAlign=middle;whiteSpace=wrap;rounded=0;fontStyle=3;labelBackgroundColor=none;labelBorderColor=default;" vertex="1" parent="1">
          <mxGeometry x="140" y="1250" width="60" height="30" as="geometry" />
        </mxCell>
        <mxCell id="ZRGWAe6ejBWaFAPOV5AN-41" value="TYPE 4" style="text;html=1;align=center;verticalAlign=middle;whiteSpace=wrap;rounded=0;fontStyle=3;labelBackgroundColor=none;labelBorderColor=default;" vertex="1" parent="1">
          <mxGeometry x="400" y="1250" width="60" height="30" as="geometry" />
        </mxCell>
        <mxCell id="ZRGWAe6ejBWaFAPOV5AN-45" value="" style="endArrow=classic;html=1;rounded=0;entryX=0.653;entryY=0.056;entryDx=0;entryDy=0;entryPerimeter=0;fontColor=#994C00;labelBackgroundColor=#994C00;fillColor=#ffe6cc;strokeColor=#CC6600;exitX=0.5;exitY=1;exitDx=0;exitDy=0;" edge="1" parent="1" source="ZRGWAe6ejBWaFAPOV5AN-57" target="ZRGWAe6ejBWaFAPOV5AN-31">
          <mxGeometry width="50" height="50" relative="1" as="geometry">
            <mxPoint x="-210" y="830" as="sourcePoint" />
            <mxPoint x="-10" y="910" as="targetPoint" />
            <Array as="points">
              <mxPoint y="900" />
            </Array>
          </mxGeometry>
        </mxCell>
        <mxCell id="ZRGWAe6ejBWaFAPOV5AN-46" value="&lt;div style=&quot;box-sizing: border-box; width: 100%; background: rgb(228, 228, 228); padding: 2px;&quot;&gt;&lt;span style=&quot;font-size: 11px;&quot;&gt;CouponParameter&lt;/span&gt;&lt;br&gt;&lt;/div&gt;&lt;table style=&quot;width: 100%; font-size: 11px;&quot; cellpadding=&quot;2&quot; cellspacing=&quot;0&quot;&gt;&lt;tbody&gt;&lt;tr&gt;&lt;td&gt;int&lt;br&gt;&lt;/td&gt;&lt;td&gt;Count&lt;/td&gt;&lt;/tr&gt;&lt;tr&gt;&lt;td&gt;&lt;font style=&quot;font-size: 11px;&quot;&gt;decimal&lt;br&gt;&lt;/font&gt;&lt;/td&gt;&lt;td&gt;&lt;font style=&quot;font-size: 11px;&quot;&gt;Threshold&lt;br&gt;&lt;/font&gt;&lt;/td&gt;&lt;/tr&gt;&lt;tr&gt;&lt;td style=&quot;&quot;&gt;&lt;font style=&quot;font-size: 11px;&quot;&gt;int&lt;br&gt;&lt;/font&gt;&lt;/td&gt;&lt;td&gt;&lt;font style=&quot;font-size: 11px;&quot;&gt;ExpiryDate&lt;br&gt;&lt;/font&gt;&lt;/td&gt;&lt;/tr&gt;&lt;tr&gt;&lt;td&gt;&lt;font style=&quot;font-size: 11px;&quot;&gt;string&lt;br&gt;&lt;/font&gt;&lt;/td&gt;&lt;td&gt;&lt;font style=&quot;font-size: 11px;&quot;&gt;TrackCode&lt;br&gt;&lt;/font&gt;&lt;/td&gt;&lt;/tr&gt;&lt;tr&gt;&lt;td&gt;&lt;font style=&quot;&quot;&gt;string&lt;br&gt;&lt;/font&gt;&lt;/td&gt;&lt;td&gt;&lt;font style=&quot;&quot;&gt;Note&lt;br&gt;&lt;/font&gt;&lt;/td&gt;&lt;/tr&gt;&lt;tr&gt;&lt;td&gt;&lt;font style=&quot;&quot;&gt;Enum&lt;br&gt;&lt;/font&gt;&lt;/td&gt;&lt;td&gt;&lt;font style=&quot;&quot;&gt;MarketBehavior&lt;br&gt;&lt;/font&gt;&lt;/td&gt;&lt;/tr&gt;&lt;tr&gt;&lt;td&gt;string&lt;/td&gt;&lt;td&gt;MarketBehaviorDescription&lt;br&gt;&lt;/td&gt;&lt;/tr&gt;&lt;tr&gt;&lt;td&gt;string&lt;br&gt;&lt;/td&gt;&lt;td&gt;FileName&lt;br&gt;&lt;/td&gt;&lt;/tr&gt;&lt;tr&gt;&lt;td&gt;List&amp;lt;long&amp;gt;&lt;br&gt;&lt;/td&gt;&lt;td&gt;MarketIDs&lt;br&gt;&lt;/td&gt;&lt;/tr&gt;&lt;tr&gt;&lt;td&gt;&lt;/td&gt;&lt;td&gt;&lt;br&gt;&lt;/td&gt;&lt;/tr&gt;&lt;/tbody&gt;&lt;/table&gt;" style="verticalAlign=top;align=left;overflow=fill;html=1;whiteSpace=wrap;direction=south;" vertex="1" parent="1">
          <mxGeometry x="-125" y="1440" width="210" height="180" as="geometry" />
        </mxCell>
        <mxCell id="ZRGWAe6ejBWaFAPOV5AN-47" value="&lt;div style=&quot;box-sizing: border-box; width: 100%; background: rgb(228, 228, 228); padding: 2px;&quot;&gt;&lt;span style=&quot;font-size: 11px;&quot;&gt;CouponParameter&lt;/span&gt;&lt;br&gt;&lt;/div&gt;&lt;table style=&quot;width: 100%; font-size: 11px;&quot; cellpadding=&quot;2&quot; cellspacing=&quot;0&quot;&gt;&lt;tbody&gt;&lt;tr&gt;&lt;td&gt;decimal&lt;/td&gt;&lt;td&gt;&lt;table style=&quot;width: 210px;&quot; cellpadding=&quot;2&quot; cellspacing=&quot;0&quot;&gt;&lt;tbody&gt;&lt;tr&gt;&lt;td&gt;Value&lt;/td&gt;&lt;/tr&gt;&lt;tr&gt;&lt;/tr&gt;&lt;/tbody&gt;&lt;/table&gt;&lt;/td&gt;&lt;/tr&gt;&lt;tr&gt;&lt;td&gt;&lt;font style=&quot;font-size: 11px;&quot;&gt;decimal&lt;br&gt;&lt;/font&gt;&lt;/td&gt;&lt;td&gt;&lt;font style=&quot;font-size: 11px;&quot;&gt;Threshold&lt;br&gt;&lt;/font&gt;&lt;/td&gt;&lt;/tr&gt;&lt;tr&gt;&lt;td style=&quot;&quot;&gt;&lt;font style=&quot;font-size: 11px;&quot;&gt;int&lt;br&gt;&lt;/font&gt;&lt;/td&gt;&lt;td&gt;&lt;font style=&quot;font-size: 11px;&quot;&gt;ExpiryDate&lt;br&gt;&lt;/font&gt;&lt;/td&gt;&lt;/tr&gt;&lt;tr&gt;&lt;td&gt;&lt;font style=&quot;font-size: 11px;&quot;&gt;string&lt;br&gt;&lt;/font&gt;&lt;/td&gt;&lt;td&gt;&lt;font style=&quot;font-size: 11px;&quot;&gt;TrackCode&lt;br&gt;&lt;/font&gt;&lt;/td&gt;&lt;/tr&gt;&lt;tr&gt;&lt;td&gt;&lt;font style=&quot;&quot;&gt;string&lt;br&gt;&lt;/font&gt;&lt;/td&gt;&lt;td&gt;&lt;font style=&quot;&quot;&gt;Note&lt;br&gt;&lt;/font&gt;&lt;/td&gt;&lt;/tr&gt;&lt;tr&gt;&lt;td&gt;&lt;font style=&quot;&quot;&gt;Enum&lt;br&gt;&lt;/font&gt;&lt;/td&gt;&lt;td&gt;&lt;font style=&quot;&quot;&gt;MarketBehavior&lt;br&gt;&lt;/font&gt;&lt;/td&gt;&lt;/tr&gt;&lt;tr&gt;&lt;td&gt;String&lt;/td&gt;&lt;td&gt;MarketBehaviorDescription&lt;br&gt;&lt;/td&gt;&lt;/tr&gt;&lt;tr&gt;&lt;td&gt;string&lt;br&gt;&lt;/td&gt;&lt;td&gt;FileName&lt;br&gt;&lt;/td&gt;&lt;/tr&gt;&lt;tr&gt;&lt;td&gt;List&amp;lt;long&amp;gt;&lt;br&gt;&lt;/td&gt;&lt;td&gt;MarketIDs&lt;br&gt;&lt;/td&gt;&lt;/tr&gt;&lt;tr&gt;&lt;td&gt;&lt;/td&gt;&lt;td&gt;&lt;br&gt;&lt;/td&gt;&lt;/tr&gt;&lt;/tbody&gt;&lt;/table&gt;" style="verticalAlign=top;align=left;overflow=fill;html=1;whiteSpace=wrap;direction=south;" vertex="1" parent="1">
          <mxGeometry x="130" y="1440" width="210" height="180" as="geometry" />
        </mxCell>
        <mxCell id="ZRGWAe6ejBWaFAPOV5AN-48" value="&lt;div style=&quot;box-sizing: border-box; width: 100%; background: rgb(228, 228, 228); padding: 2px;&quot;&gt;&lt;span style=&quot;font-size: 11px;&quot;&gt;CouponParameter&lt;/span&gt;&lt;br&gt;&lt;/div&gt;&lt;table style=&quot;width: 100%; font-size: 11px;&quot; cellpadding=&quot;2&quot; cellspacing=&quot;0&quot;&gt;&lt;tbody&gt;&lt;tr&gt;&lt;td&gt;int&lt;/td&gt;&lt;td&gt;Count&lt;br&gt;&lt;/td&gt;&lt;/tr&gt;&lt;tr&gt;&lt;td&gt;decimal&lt;/td&gt;&lt;td&gt;&lt;table style=&quot;width: 210px;&quot; cellpadding=&quot;2&quot; cellspacing=&quot;0&quot;&gt;&lt;tbody&gt;&lt;tr&gt;&lt;td&gt;Value&lt;/td&gt;&lt;/tr&gt;&lt;tr&gt;&lt;/tr&gt;&lt;/tbody&gt;&lt;/table&gt;&lt;/td&gt;&lt;/tr&gt;&lt;tr&gt;&lt;td&gt;&lt;font style=&quot;font-size: 11px;&quot;&gt;decimal&lt;br&gt;&lt;/font&gt;&lt;/td&gt;&lt;td&gt;&lt;font style=&quot;font-size: 11px;&quot;&gt;Threshold&lt;br&gt;&lt;/font&gt;&lt;/td&gt;&lt;/tr&gt;&lt;tr&gt;&lt;td style=&quot;&quot;&gt;&lt;font style=&quot;font-size: 11px;&quot;&gt;int&lt;br&gt;&lt;/font&gt;&lt;/td&gt;&lt;td&gt;&lt;font style=&quot;font-size: 11px;&quot;&gt;ExpiryDate&lt;br&gt;&lt;/font&gt;&lt;/td&gt;&lt;/tr&gt;&lt;tr&gt;&lt;td&gt;&lt;font style=&quot;font-size: 11px;&quot;&gt;string&lt;br&gt;&lt;/font&gt;&lt;/td&gt;&lt;td&gt;&lt;font style=&quot;font-size: 11px;&quot;&gt;TrackCode&lt;br&gt;&lt;/font&gt;&lt;/td&gt;&lt;/tr&gt;&lt;tr&gt;&lt;td&gt;&lt;font style=&quot;&quot;&gt;string&lt;br&gt;&lt;/font&gt;&lt;/td&gt;&lt;td&gt;&lt;font style=&quot;&quot;&gt;Note&lt;br&gt;&lt;/font&gt;&lt;/td&gt;&lt;/tr&gt;&lt;tr&gt;&lt;td&gt;&lt;font style=&quot;&quot;&gt;Enum&lt;br&gt;&lt;/font&gt;&lt;/td&gt;&lt;td&gt;&lt;font style=&quot;&quot;&gt;MarketBehavior&lt;br&gt;&lt;/font&gt;&lt;/td&gt;&lt;/tr&gt;&lt;tr&gt;&lt;td&gt;string&lt;/td&gt;&lt;td&gt;MarketBehaviorDescription&lt;br&gt;&lt;/td&gt;&lt;/tr&gt;&lt;tr&gt;&lt;td&gt;string&lt;br&gt;&lt;/td&gt;&lt;td&gt;FileName&lt;br&gt;&lt;/td&gt;&lt;/tr&gt;&lt;tr&gt;&lt;td&gt;List&amp;lt;long&amp;gt;&lt;br&gt;&lt;/td&gt;&lt;td&gt;MarketIDs&lt;br&gt;&lt;/td&gt;&lt;/tr&gt;&lt;tr&gt;&lt;td&gt;&lt;/td&gt;&lt;td&gt;&lt;br&gt;&lt;/td&gt;&lt;/tr&gt;&lt;/tbody&gt;&lt;/table&gt;" style="verticalAlign=top;align=left;overflow=fill;html=1;whiteSpace=wrap;direction=south;" vertex="1" parent="1">
          <mxGeometry x="380" y="1440" width="210" height="200" as="geometry" />
        </mxCell>
        <mxCell id="ZRGWAe6ejBWaFAPOV5AN-49" value="&lt;div style=&quot;box-sizing: border-box; width: 100%; background: rgb(228, 228, 228); padding: 2px; font-size: 11px;&quot;&gt;CouponEventDataViewModel&lt;/div&gt;&lt;table align=&quot;left&quot; style=&quot;width: 100%; font-size: 11px;&quot; cellpadding=&quot;2&quot; cellspacing=&quot;0&quot;&gt;&lt;tbody&gt;&lt;tr&gt;&lt;td&gt;&lt;font style=&quot;font-size: 11px;&quot;&gt;long&lt;/font&gt;&lt;/td&gt;&lt;td&gt;&lt;font style=&quot;font-size: 11px;&quot;&gt;ID&lt;/font&gt;&lt;/td&gt;&lt;/tr&gt;&lt;tr&gt;&lt;td&gt;&lt;font style=&quot;font-size: 11px;&quot;&gt;string&lt;/font&gt;&lt;/td&gt;&lt;td&gt;&lt;font style=&quot;font-size: 11px;&quot;&gt;Name&lt;/font&gt;&lt;/td&gt;&lt;/tr&gt;&lt;tr&gt;&lt;td&gt;&lt;font style=&quot;font-size: 11px;&quot;&gt;string&lt;br&gt;&lt;/font&gt;&lt;/td&gt;&lt;td&gt;&lt;font style=&quot;font-size: 11px;&quot;&gt;Creator&lt;br&gt;&lt;/font&gt;&lt;/td&gt;&lt;/tr&gt;&lt;tr&gt;&lt;td style=&quot;&quot;&gt;&lt;font style=&quot;font-size: 11px;&quot;&gt;string&lt;br&gt;&lt;/font&gt;&lt;/td&gt;&lt;td&gt;&lt;font style=&quot;font-size: 11px;&quot;&gt;UpdateTime&lt;br&gt;&lt;/font&gt;&lt;/td&gt;&lt;/tr&gt;&lt;tr&gt;&lt;td&gt;&lt;font style=&quot;font-size: 11px;&quot;&gt;Enum&lt;br&gt;&lt;/font&gt;&lt;/td&gt;&lt;td&gt;&lt;font style=&quot;font-size: 11px;&quot;&gt;EventType&lt;br&gt;&lt;/font&gt;&lt;/td&gt;&lt;/tr&gt;&lt;tr&gt;&lt;td&gt;&lt;font style=&quot;&quot;&gt;string&lt;br&gt;&lt;/font&gt;&lt;/td&gt;&lt;td&gt;&lt;font style=&quot;&quot;&gt;EventTypeDescription&lt;br&gt;&lt;/font&gt;&lt;/td&gt;&lt;/tr&gt;&lt;tr&gt;&lt;td&gt;&lt;font style=&quot;&quot;&gt;bool&lt;br&gt;&lt;/font&gt;&lt;/td&gt;&lt;td&gt;&lt;font style=&quot;&quot;&gt;Editable&lt;br&gt;&lt;/font&gt;&lt;/td&gt;&lt;/tr&gt;&lt;/tbody&gt;&lt;/table&gt;" style="verticalAlign=top;align=left;overflow=fill;html=1;whiteSpace=wrap;" vertex="1" parent="1">
          <mxGeometry x="309" y="430" width="210" height="140" as="geometry" />
        </mxCell>
        <mxCell id="ZRGWAe6ejBWaFAPOV5AN-51" value="&lt;div style=&quot;box-sizing: border-box; width: 100%; background: rgb(228, 228, 228); padding: 2px;&quot;&gt;&lt;span style=&quot;font-size: 11px;&quot;&gt;EventParameter&lt;/span&gt;&lt;br&gt;&lt;/div&gt;&lt;table style=&quot;width: 100%; font-size: 11px;&quot; cellpadding=&quot;2&quot; cellspacing=&quot;0&quot;&gt;&lt;tbody&gt;&lt;tr&gt;&lt;td&gt;string&lt;br&gt;&lt;/td&gt;&lt;td&gt;EventStatus&lt;/td&gt;&lt;/tr&gt;&lt;tr&gt;&lt;td&gt;&lt;font style=&quot;font-size: 11px;&quot;&gt;string&lt;/font&gt;&lt;/td&gt;&lt;td&gt;&lt;font style=&quot;font-size: 11px;&quot;&gt;EventStartDate&lt;/font&gt;&lt;/td&gt;&lt;/tr&gt;&lt;tr&gt;&lt;td&gt;&lt;font style=&quot;font-size: 11px;&quot;&gt;string&lt;br&gt;&lt;/font&gt;&lt;/td&gt;&lt;td&gt;&lt;font style=&quot;font-size: 11px;&quot;&gt;EventEndDate&lt;br&gt;&lt;/font&gt;&lt;/td&gt;&lt;/tr&gt;&lt;tr&gt;&lt;td style=&quot;&quot;&gt;&lt;font style=&quot;font-size: 11px;&quot;&gt;string&lt;br&gt;&lt;/font&gt;&lt;/td&gt;&lt;td&gt;&lt;font style=&quot;font-size: 11px;&quot;&gt;OrderStartDate&lt;br&gt;&lt;/font&gt;&lt;/td&gt;&lt;/tr&gt;&lt;tr&gt;&lt;td&gt;&lt;font style=&quot;font-size: 11px;&quot;&gt;string&lt;br&gt;&lt;/font&gt;&lt;/td&gt;&lt;td&gt;&lt;font style=&quot;font-size: 11px;&quot;&gt;OrderEndDate&lt;/font&gt;&lt;/td&gt;&lt;/tr&gt;&lt;tr&gt;&lt;td&gt;bool&lt;br&gt;&lt;/td&gt;&lt;td&gt;IsAppreciation&lt;br&gt;&lt;/td&gt;&lt;/tr&gt;&lt;tr&gt;&lt;td&gt;decimal&lt;br&gt;&lt;/td&gt;&lt;td&gt;OrderThreshold&lt;br&gt;&lt;/td&gt;&lt;/tr&gt;&lt;tr&gt;&lt;td&gt;string&lt;br&gt;&lt;/td&gt;&lt;td&gt;FileName&lt;br&gt;&lt;/td&gt;&lt;/tr&gt;&lt;tr&gt;&lt;td&gt;List&amp;lt;long&amp;gt;&lt;br&gt;&lt;/td&gt;&lt;td&gt;MarketIDs&lt;/td&gt;&lt;/tr&gt;&lt;/tbody&gt;&lt;/table&gt;" style="verticalAlign=top;align=left;overflow=fill;html=1;whiteSpace=wrap;" vertex="1" parent="1">
          <mxGeometry x="309" y="570" width="210" height="180" as="geometry" />
        </mxCell>
        <mxCell id="ZRGWAe6ejBWaFAPOV5AN-55" style="edgeStyle=orthogonalEdgeStyle;rounded=0;orthogonalLoop=1;jettySize=auto;html=1;entryX=0.05;entryY=0.524;entryDx=0;entryDy=0;entryPerimeter=0;" edge="1" parent="1" source="ZRGWAe6ejBWaFAPOV5AN-17" target="ZRGWAe6ejBWaFAPOV5AN-48">
          <mxGeometry relative="1" as="geometry">
            <Array as="points">
              <mxPoint x="-235" y="1170" />
              <mxPoint x="480" y="1170" />
            </Array>
          </mxGeometry>
        </mxCell>
        <mxCell id="ZRGWAe6ejBWaFAPOV5AN-57" value="&lt;div&gt;&lt;br&gt;&lt;/div&gt;&lt;div&gt;&lt;br&gt;&lt;/div&gt;" style="text;strokeColor=none;fillColor=none;html=1;fontSize=24;fontStyle=1;verticalAlign=middle;align=center;" vertex="1" parent="1">
          <mxGeometry x="-230" y="780" width="30" height="10" as="geometry" />
        </mxCell>
      </root>
    </mxGraphModel>
  </diagram>
</mxfile>
